<?xml version="1.0" encoding="utf-8"?>
<svg version="1.1" id="Layer_1" xmlns="http://www.w3.org/2000/svg" xmlns:xlink="http://www.w3.org/1999/xlink" x="0px" y="0px"
	 viewBox="0 0 29 20" style="enable-background:new 0 0 29 20;" xml:space="preserve">
<g>
	<path d="M25.2,19.7H3.8c-1.8,0-3.3-1.5-3.3-3.3V3.9c0,0,0,0,0,0c0-1.8,1.5-3.3,3.3-3.3h21.4c1.8,0,3.3,1.5,3.3,3.3
		c0,0,0,0,0,0v12.4C28.5,18.2,27,19.7,25.2,19.7z M3.5,7.2v9.2c0,0.2,0.1,0.3,0.3,0.3h21.4c0.2,0,0.3-0.1,0.3-0.3V7.2l-7.7,6.6
		c-1.9,1.6-4.7,1.6-6.6,0L3.5,7.2z M4,3.7l9.2,7.8c0.8,0.7,1.9,0.7,2.7,0L25,3.7H4z"/>
</g>
</svg>
