<?xml version="1.0" encoding="utf-8"?>
<svg version="1.1" id="Layer_1" xmlns="http://www.w3.org/2000/svg" xmlns:xlink="http://www.w3.org/1999/xlink" x="0px" y="0px"
	 viewBox="0 0 20 26" style="enable-background:new 0 0 20 26;" xml:space="preserve">
<g>
	<path d="M14.2,24.7c-0.2,0-0.4,0-0.6-0.1C9.5,23,5.9,20,3.7,16.1C1.4,12.1,0.6,7.6,1.3,3.2C1.4,2.4,2,1.9,2.7,1.7
		l3-0.6c0.7-0.1,1.3,0,1.9,0.5c0.6,0.5,1,1.2,1,1.9c0,0.7,0.1,1.4,0.3,2.1C9,6,9.1,6.3,9.1,6.7c0.1,0.6,0,1.2-0.3,1.6
		C8.6,8.8,8.1,9.1,7.6,9.1C7.2,9.2,6.8,9.5,6.7,9.8c-0.2,0.4-0.2,0.8,0.1,1.2L9.5,16c0.2,0.4,0.6,0.6,1,0.7c0.4,0,0.8-0.1,1.1-0.4
		c0.3-0.4,0.8-0.7,1.4-0.7c0.6,0,1.2,0.2,1.6,0.6c0.2,0.1,0.3,0.3,0.5,0.4c0.6,0.5,1.3,1,2,1.5c0.6,0.4,1.1,1.1,1.2,1.9
		c0.1,0.7-0.1,1.4-0.6,1.9l-2.2,2.4C15.2,24.5,14.7,24.7,14.2,24.7z M6.2,2.1c-0.1,0-0.2,0-0.2,0l-3,0.6C2.6,2.8,2.4,3,2.3,3.3
		c-0.7,4.2,0.1,8.5,2.2,12.3c2.1,3.7,5.5,6.6,9.5,8.1c0.3,0.1,0.6,0,0.8-0.2L17,21c0.3-0.3,0.4-0.7,0.3-1.1
		c-0.1-0.5-0.3-0.9-0.7-1.2c-0.7-0.5-1.4-1-2.1-1.5l0,0c-0.2-0.1-0.3-0.3-0.5-0.5c-0.2-0.2-0.6-0.3-0.9-0.3c-0.3,0-0.5,0.1-0.7,0.4
		c-0.5,0.6-1.2,0.9-1.9,0.8c-0.8-0.1-1.4-0.5-1.8-1.2l-2.8-4.9c-0.4-0.7-0.4-1.5-0.1-2.2c0.3-0.7,0.9-1.1,1.7-1.2
		C7.7,8.1,7.9,8,8,7.8c0.2-0.2,0.2-0.6,0.1-0.8C8.1,6.6,8,6.2,7.9,5.8C7.8,5.1,7.7,4.3,7.7,3.6c0-0.5-0.3-0.9-0.6-1.2
		C6.8,2.2,6.5,2.1,6.2,2.1z"/>
</g>
</svg>
