<?xml version="1.0" encoding="utf-8"?>
<!-- Generator: Adobe Illustrator 23.1.0, SVG Export Plug-In . SVG Version: 6.00 Build 0)  -->
<svg version="1.1" id="Layer_1" xmlns="http://www.w3.org/2000/svg" xmlns:xlink="http://www.w3.org/1999/xlink" x="0px" y="0px"
	 viewBox="0 0 20 26" style="enable-background:new 0 0 20 26;" xml:space="preserve">
<g>
	<path d="M14.3,25.7c-0.3,0-0.7-0.1-1-0.2c-4.4-1.7-8.1-4.9-10.5-9C0.4,12.4-0.4,7.6,0.3,3c0.2-1.1,1-2,2.2-2.2l3-0.6
		c0.9-0.2,1.9,0,2.7,0.6c0.8,0.6,1.4,1.6,1.4,2.7c0,0.7,0.1,1.3,0.2,2c0.1,0.3,0.1,0.7,0.2,1c0.2,0.8,0,1.7-0.4,2.4
		C9.2,9.6,8.5,10,7.7,10.1c0,0-0.1,0-0.2,0.1c0,0.1-0.1,0.2,0,0.3l2.8,4.9c0.1,0.1,0.2,0.2,0.3,0.2c0.1,0,0.2-0.1,0.2-0.1
		c0.5-0.6,1.3-1,2.1-1.1c0.9-0.1,1.7,0.2,2.4,0.8c0.1,0.1,0.3,0.3,0.5,0.4l0,0c0.6,0.5,1.2,1,1.9,1.4c0.9,0.6,1.5,1.5,1.6,2.6
		c0.1,1-0.2,2-0.8,2.7l-2.2,2.4C15.8,25.4,15,25.7,14.3,25.7z M3.3,3.7c-0.6,3.9,0.2,7.9,2.1,11.4c2,3.5,5.1,6.2,8.8,7.6l2.1-2.3
		c0.1-0.1,0.1-0.2,0.1-0.3c0-0.2-0.1-0.4-0.3-0.5c-0.8-0.5-1.5-1-2.2-1.6c0,0,0,0,0,0c-0.2-0.2-0.4-0.3-0.5-0.5
		c-0.1-0.1-0.1-0.1-0.1-0.1c-0.6,0.8-1.7,1.3-2.7,1.2c-1.1-0.1-2.1-0.7-2.6-1.7L5,12.1c-0.5-1-0.6-2.1-0.1-3.1
		c0.5-1,1.4-1.6,2.4-1.8C7.1,6.8,7,6.4,6.9,6C6.8,5.2,6.7,4.4,6.7,3.6c0-0.2-0.1-0.4-0.3-0.5C6.3,3.1,6.2,3.1,6.1,3.1L3.3,3.7z"/>
</g>
</svg>
