<svg width="83" height="98" fill="none" xmlns="http://www.w3.org/2000/svg"><path d="M25.376 94.68V23.141c0-.94-.763-1.703-1.705-1.703H3.205c-.941 0-1.705.763-1.705 1.703V94.68c0 .941.764 1.704 1.705 1.704h20.466c.942 0 1.705-.763 1.705-1.704zm0 0V2.702c0-.94.764-1.703 1.706-1.703h20.465c.942 0 1.705.763 1.705 1.703V94.68c0 .941-.763 1.704-1.705 1.704H27.082a1.704 1.704 0 01-1.706-1.704zM1.5 32.142h23.876M1.5 85.673h23.876m0-71.05h23.876m-23.876 68.13h23.876M54.37 36.77l17.478-2.794M54.369 36.77l9.33 58.214a16.347 16.347 0 016.863-2.798l3.22-.515c2.499-.4 5.027-.21 7.395.519l-9.33-58.214M54.369 36.77L64.022 97m7.825-63.024l9.653 60.23" stroke="red" stroke-width="2" stroke-linecap="round" stroke-linejoin="round"/></svg>