<svg width="83" height="98" viewBox="0 0 83 98" fill="none" xmlns="http://www.w3.org/2000/svg">
<path d="M25.3761 94.6794V23.1424C25.3761 22.2017 24.6126 21.4391 23.6707 21.4391H3.20544C2.26355 21.4391 1.5 22.2017 1.5 23.1424V94.6794C1.5 95.6201 2.26355 96.3827 3.20544 96.3827H23.6707C24.6126 96.3827 25.3761 95.6201 25.3761 94.6794ZM25.3761 94.6794V2.70326C25.3761 1.76258 26.1397 1 27.0816 1H47.5468C48.4887 1 49.2523 1.76258 49.2523 2.70326V94.6794C49.2523 95.6201 48.4887 96.3827 47.5468 96.3827H27.0816C26.1397 96.3827 25.3761 95.6201 25.3761 94.6794ZM1.5 32.1427H25.3761M1.5 85.6738H25.3761M25.3761 14.6228H49.2523M25.3761 82.7532H49.2523M54.3688 36.77L71.8469 33.976M54.3688 36.77L63.6988 94.984C65.7206 93.5535 68.0632 92.5856 70.5616 92.1862L73.7826 91.6713C76.2809 91.2719 78.809 91.4612 81.1769 92.19L71.8469 33.976M54.3688 36.77L64.0219 97M71.8469 33.976L81.5 94.2059" stroke="#FF0000" stroke-width="2" stroke-linecap="round" stroke-linejoin="round"/>
</svg>
