<?xml version="1.0" encoding="utf-8"?><svg xmlns="http://www.w3.org/2000/svg" xmlns:xlink="http://www.w3.org/1999/xlink"><symbol viewBox="0 0 29 20" id="mail" xmlns="http://www.w3.org/2000/svg"><path d="M25.2 19.7H3.8C2 19.7.5 18.2.5 16.4V3.9C.5 2.1 2 .6 3.8.6h21.4c1.8 0 3.3 1.5 3.3 3.3v12.4c0 1.9-1.5 3.4-3.3 3.4zM3.5 7.2v9.2c0 .2.1.3.3.3h21.4c.2 0 .3-.1.3-.3V7.2l-7.7 6.6c-1.9 1.6-4.7 1.6-6.6 0L3.5 7.2zM4 3.7l9.2 7.8c.8.7 1.9.7 2.7 0L25 3.7H4z"/></symbol><symbol viewBox="0 0 20 26" id="phone" xmlns="http://www.w3.org/2000/svg"><path d="M14.3 25.7c-.3 0-.7-.1-1-.2-4.4-1.7-8.1-4.9-10.5-9C.4 12.4-.4 7.6.3 3c.2-1.1 1-2 2.2-2.2l3-.6c.9-.2 1.9 0 2.7.6.8.6 1.4 1.6 1.4 2.7 0 .7.1 1.3.2 2 .1.3.1.7.2 1 .2.8 0 1.7-.4 2.4S8.5 10 7.7 10.1c0 0-.1 0-.2.1 0 .1-.1.2 0 .3l2.8 4.9c.1.1.2.2.3.2.1 0 .2-.1.2-.1.5-.6 1.3-1 2.1-1.1.9-.1 1.7.2 2.4.8.1.1.3.3.5.4.6.5 1.2 1 1.9 1.4.9.6 1.5 1.5 1.6 2.6.1 1-.2 2-.8 2.7l-2.2 2.4c-.5.7-1.3 1-2 1zm-11-22c-.6 3.9.2 7.9 2.1 11.4 2 3.5 5.1 6.2 8.8 7.6l2.1-2.3c.1-.1.1-.2.1-.3 0-.2-.1-.4-.3-.5-.8-.5-1.5-1-2.2-1.6-.2-.2-.4-.3-.5-.5l-.1-.1c-.6.8-1.7 1.3-2.7 1.2-1.1-.1-2.1-.7-2.6-1.7l-3-4.8c-.5-1-.6-2.1-.1-3.1s1.4-1.6 2.4-1.8c-.2-.4-.3-.8-.4-1.2-.1-.8-.2-1.6-.2-2.4 0-.2-.1-.4-.3-.5h-.3l-2.8.6z"/></symbol><symbol viewBox="0 0 22 22" id="pin" xmlns="http://www.w3.org/2000/svg"><path d="M11 19.158l4.537-4.537a6.416 6.416 0 10-9.075 0L11 19.158zm0 2.593l-5.834-5.834a8.25 8.25 0 1111.668 0L11 21.751zm0-9.834a1.834 1.834 0 100-3.668 1.834 1.834 0 000 3.668zm0 1.833a3.666 3.666 0 110-7.333 3.666 3.666 0 010 7.333z"/></symbol></svg>